# xmcd
#
# Track frame offsets:
#	150
#	21288
#	52813
#	74392
#	106462
#	126874
#	151070
#	172353
#	195751
#	228156
#
# Disc length: 3397 seconds
#
# Revision: 0
# Processed by: cddbd v1.5.2PL0 Copyright (c) Steve Scherf et al.
# Submitted via: EasyCDDAExtractor 8.2.3.1
#
DISCID=7b0d430a
DTITLE=Buddy Guy - D J  Play My Blues
DYEAR=1982
DGENRE=Blues
TTITLE0=Girl You're Nice and Clean
TTITLE1=Dedication To The Late T-Bone Walker
TTITLE2=Good News
TTITLE3=Blues At My Baby's House
TTITLE4=She Suits Me To A T
TTITLE5=D J  Play My Blues
TTITLE6=Just Teasin'
TTITLE7=All Your Love
TTITLE8=Garbage Man Blues
TTITLE9=Mellow Down
EXTD=
EXTT0=
EXTT1=
EXTT2=
EXTT3=
EXTT4=
EXTT5=
EXTT6=
EXTT7=
EXTT8=
EXTT9=
PLAYORDER=
